G04*
G04 #@! TF.GenerationSoftware,Altium Limited,Altium Designer,22.0.2 (36)*
G04*
G04 Layer_Color=32896*
%FSLAX23Y23*%
%MOIN*%
G70*
G04*
G04 #@! TF.SameCoordinates,FFE58276-D16A-40DC-94CB-801E61EA4FAC*
G04*
G04*
G04 #@! TF.FilePolarity,Positive*
G04*
G01*
G75*
%ADD50C,0.008*%
G36*
X1583Y3268D02*
X2018D01*
Y3265D01*
X2034D01*
Y3261D01*
X2051D01*
Y3258D01*
X2061D01*
Y3255D01*
X2071D01*
Y3251D01*
X2081D01*
Y3248D01*
X2087D01*
Y3245D01*
X2094D01*
Y3241D01*
X2104D01*
Y3238D01*
X2111D01*
Y3235D01*
X2114D01*
Y3232D01*
X2121D01*
Y3228D01*
X2127D01*
Y3225D01*
X2131D01*
Y3222D01*
X2137D01*
Y3218D01*
X2141D01*
Y3215D01*
X2147D01*
Y3212D01*
X2150D01*
Y3208D01*
X2154D01*
Y3205D01*
X2157D01*
Y3202D01*
X2160D01*
Y3198D01*
X2167D01*
Y3195D01*
X2170D01*
Y3192D01*
X2174D01*
Y3188D01*
X2177D01*
Y3185D01*
X2180D01*
Y3182D01*
X2184D01*
Y3178D01*
X2187D01*
Y3175D01*
X2190D01*
Y3168D01*
X2194D01*
Y3165D01*
X2197D01*
Y3162D01*
X2200D01*
Y3159D01*
X2204D01*
Y3152D01*
X2207D01*
Y3149D01*
X2210D01*
Y3145D01*
X2214D01*
Y3139D01*
X2217D01*
Y3132D01*
X2220D01*
Y3129D01*
X2223D01*
Y3122D01*
X2227D01*
Y3115D01*
X2230D01*
Y3109D01*
X2233D01*
Y3102D01*
X2237D01*
Y3095D01*
X2240D01*
Y3086D01*
X2243D01*
Y3076D01*
X2247D01*
Y3066D01*
X2250D01*
Y3052D01*
X2253D01*
Y3039D01*
X2257D01*
Y3016D01*
X2260D01*
Y2910D01*
Y2906D01*
Y1294D01*
X2456D01*
Y1290D01*
X2472D01*
Y1287D01*
X2482D01*
Y1284D01*
X2489D01*
Y1280D01*
X2499D01*
Y1277D01*
X2506D01*
Y1274D01*
X2509D01*
Y1270D01*
X2516D01*
Y1267D01*
X2519D01*
Y1264D01*
X2525D01*
Y1260D01*
X2529D01*
Y1257D01*
X2532D01*
Y1254D01*
X2535D01*
Y1251D01*
X2542D01*
Y1247D01*
X2545D01*
Y1241D01*
X2549D01*
Y1237D01*
X2552D01*
Y1234D01*
X2555D01*
Y1231D01*
X2559D01*
Y1227D01*
X2562D01*
Y1221D01*
X2565D01*
Y1217D01*
X2569D01*
Y1211D01*
X2572D01*
Y1204D01*
X2575D01*
Y1197D01*
X2579D01*
Y1187D01*
X2582D01*
Y1181D01*
X2585D01*
Y1168D01*
X2589D01*
Y1148D01*
X2592D01*
Y1111D01*
X2589D01*
Y1095D01*
X2585D01*
Y1081D01*
X2582D01*
Y1071D01*
X2579D01*
Y1065D01*
X2575D01*
Y1058D01*
X2572D01*
Y1051D01*
X2569D01*
Y1045D01*
X2565D01*
Y1038D01*
X2562D01*
Y1035D01*
X2559D01*
Y1032D01*
X2555D01*
Y1025D01*
X2552D01*
Y1022D01*
X2549D01*
Y1018D01*
X2545D01*
Y1015D01*
X2542D01*
Y1012D01*
X2539D01*
Y1008D01*
X2535D01*
Y1005D01*
X2532D01*
Y1002D01*
X2525D01*
Y998D01*
X2522D01*
Y995D01*
X2519D01*
Y992D01*
X2512D01*
Y988D01*
X2506D01*
Y985D01*
X2499D01*
Y982D01*
X2492D01*
Y978D01*
X2486D01*
Y975D01*
X2476D01*
Y972D01*
X2462D01*
Y968D01*
X2449D01*
Y487D01*
X2446D01*
Y484D01*
X1885D01*
Y965D01*
X1168D01*
Y487D01*
X1165D01*
Y484D01*
X604D01*
Y968D01*
X588D01*
Y972D01*
X574D01*
Y975D01*
X564D01*
Y978D01*
X558D01*
Y982D01*
X551D01*
Y985D01*
X544D01*
Y988D01*
X538D01*
Y992D01*
X535D01*
Y995D01*
X528D01*
Y998D01*
X525D01*
Y1002D01*
X521D01*
Y1005D01*
X515D01*
Y1008D01*
X511D01*
Y1012D01*
X508D01*
Y1015D01*
X505D01*
Y1018D01*
X501D01*
Y1022D01*
X498D01*
Y1028D01*
X495D01*
Y1032D01*
X491D01*
Y1035D01*
X488D01*
Y1041D01*
X485D01*
Y1045D01*
X481D01*
Y1051D01*
X478D01*
Y1058D01*
X475D01*
Y1065D01*
X471D01*
Y1075D01*
X468D01*
Y1085D01*
X465D01*
Y1095D01*
X462D01*
Y1118D01*
X458D01*
Y1144D01*
X462D01*
Y1164D01*
X465D01*
Y1178D01*
X468D01*
Y1187D01*
X471D01*
Y1197D01*
X475D01*
Y1204D01*
X478D01*
Y1211D01*
X481D01*
Y1214D01*
X485D01*
Y1221D01*
X488D01*
Y1224D01*
X491D01*
Y1231D01*
X495D01*
Y1234D01*
X498D01*
Y1237D01*
X501D01*
Y1241D01*
X505D01*
Y1244D01*
X508D01*
Y1247D01*
X511D01*
Y1251D01*
X515D01*
Y1254D01*
X518D01*
Y1257D01*
X521D01*
Y1260D01*
X525D01*
Y1264D01*
X531D01*
Y1267D01*
X535D01*
Y1270D01*
X541D01*
Y1274D01*
X548D01*
Y1277D01*
X554D01*
Y1280D01*
X561D01*
Y1284D01*
X571D01*
Y1287D01*
X581D01*
Y1290D01*
X594D01*
Y1294D01*
X790D01*
Y3009D01*
X793D01*
Y3036D01*
X797D01*
Y3052D01*
X800D01*
Y3062D01*
X803D01*
Y3076D01*
X807D01*
Y3086D01*
X810D01*
Y3092D01*
X813D01*
Y3102D01*
X817D01*
Y3109D01*
X820D01*
Y3115D01*
X823D01*
Y3122D01*
X827D01*
Y3125D01*
X830D01*
Y3132D01*
X833D01*
Y3139D01*
X836D01*
Y3142D01*
X840D01*
Y3149D01*
X843D01*
Y3152D01*
X846D01*
Y3155D01*
X850D01*
Y3162D01*
X853D01*
Y3165D01*
X856D01*
Y3168D01*
X860D01*
Y3172D01*
X863D01*
Y3175D01*
X866D01*
Y3182D01*
X870D01*
Y3185D01*
X873D01*
Y3188D01*
X876D01*
Y3192D01*
X880D01*
Y3195D01*
X886D01*
Y3198D01*
X890D01*
Y3202D01*
X893D01*
Y3205D01*
X896D01*
Y3208D01*
X900D01*
Y3212D01*
X906D01*
Y3215D01*
X909D01*
Y3218D01*
X913D01*
Y3222D01*
X919D01*
Y3225D01*
X923D01*
Y3228D01*
X929D01*
Y3232D01*
X936D01*
Y3235D01*
X943D01*
Y3238D01*
X949D01*
Y3241D01*
X956D01*
Y3245D01*
X963D01*
Y3248D01*
X969D01*
Y3251D01*
X979D01*
Y3255D01*
X989D01*
Y3258D01*
X1002D01*
Y3261D01*
X1016D01*
Y3265D01*
X1032D01*
Y3268D01*
X1467D01*
Y3494D01*
X1583D01*
Y3268D01*
D02*
G37*
%LPC*%
G36*
X1998Y3155D02*
X1779D01*
Y3099D01*
X1776D01*
Y3082D01*
X1772D01*
Y3072D01*
X1769D01*
Y3066D01*
X1766D01*
Y3059D01*
X1762D01*
Y3052D01*
X1759D01*
Y3049D01*
X1756D01*
Y3046D01*
X1752D01*
Y3039D01*
X1749D01*
Y3036D01*
X1746D01*
Y3032D01*
X1742D01*
Y3029D01*
X1739D01*
Y3026D01*
X1732D01*
Y3022D01*
X1729D01*
Y3019D01*
X1722D01*
Y3016D01*
X1719D01*
Y3013D01*
X1709D01*
Y3009D01*
X1703D01*
Y3006D01*
X1689D01*
Y3003D01*
X1361D01*
Y3006D01*
X1351D01*
Y3009D01*
X1341D01*
Y3013D01*
X1334D01*
Y3016D01*
X1328D01*
Y3019D01*
X1321D01*
Y3022D01*
X1318D01*
Y3026D01*
X1314D01*
Y3029D01*
X1308D01*
Y3032D01*
X1304D01*
Y3036D01*
X1301D01*
Y3042D01*
X1298D01*
Y3046D01*
X1294D01*
Y3049D01*
X1291D01*
Y3056D01*
X1288D01*
Y3059D01*
X1284D01*
Y3066D01*
X1281D01*
Y3076D01*
X1278D01*
Y3086D01*
X1274D01*
Y3105D01*
X1271D01*
Y3155D01*
X1052D01*
Y3152D01*
X1032D01*
Y3149D01*
X1022D01*
Y3145D01*
X1012D01*
Y3142D01*
X1006D01*
Y3139D01*
X999D01*
Y3135D01*
X992D01*
Y3132D01*
X986D01*
Y3129D01*
X979D01*
Y3125D01*
X976D01*
Y3122D01*
X973D01*
Y3119D01*
X966D01*
Y3115D01*
X963D01*
Y3112D01*
X959D01*
Y3109D01*
X956D01*
Y3105D01*
X953D01*
Y3102D01*
X949D01*
Y3099D01*
X946D01*
Y3095D01*
X943D01*
Y3089D01*
X939D01*
Y3086D01*
X936D01*
Y3082D01*
X933D01*
Y3076D01*
X929D01*
Y3072D01*
X926D01*
Y3066D01*
X923D01*
Y3059D01*
X919D01*
Y3052D01*
X916D01*
Y3042D01*
X913D01*
Y3032D01*
X909D01*
Y3016D01*
X906D01*
Y1201D01*
X611D01*
Y1197D01*
X601D01*
Y1194D01*
X591D01*
Y1191D01*
X588D01*
Y1187D01*
X581D01*
Y1184D01*
X578D01*
Y1181D01*
X574D01*
Y1178D01*
X571D01*
Y1174D01*
X568D01*
Y1171D01*
X564D01*
Y1164D01*
X561D01*
Y1158D01*
X558D01*
Y1148D01*
X554D01*
Y1114D01*
X558D01*
Y1105D01*
X561D01*
Y1098D01*
X564D01*
Y1091D01*
X568D01*
Y1088D01*
X571D01*
Y1081D01*
X574D01*
Y1078D01*
X581D01*
Y1075D01*
X584D01*
Y1071D01*
X591D01*
Y1068D01*
X598D01*
Y1065D01*
X604D01*
Y1061D01*
X1211D01*
Y1675D01*
X1839D01*
Y1061D01*
X2446D01*
Y1065D01*
X2456D01*
Y1068D01*
X2462D01*
Y1071D01*
X2466D01*
Y1075D01*
X2472D01*
Y1078D01*
X2476D01*
Y1081D01*
X2479D01*
Y1085D01*
X2482D01*
Y1091D01*
X2486D01*
Y1095D01*
X2489D01*
Y1101D01*
X2492D01*
Y1111D01*
X2496D01*
Y1151D01*
X2492D01*
Y1158D01*
X2489D01*
Y1164D01*
X2486D01*
Y1171D01*
X2482D01*
Y1174D01*
X2479D01*
Y1178D01*
X2476D01*
Y1181D01*
X2472D01*
Y1184D01*
X2469D01*
Y1187D01*
X2466D01*
Y1191D01*
X2459D01*
Y1194D01*
X2452D01*
Y1197D01*
X2439D01*
Y1201D01*
X2144D01*
Y1337D01*
Y1340D01*
Y3019D01*
X2141D01*
Y3032D01*
X2137D01*
Y3042D01*
X2134D01*
Y3052D01*
X2131D01*
Y3059D01*
X2127D01*
Y3066D01*
X2124D01*
Y3072D01*
X2121D01*
Y3076D01*
X2117D01*
Y3082D01*
X2114D01*
Y3086D01*
X2111D01*
Y3092D01*
X2107D01*
Y3095D01*
X2104D01*
Y3099D01*
X2101D01*
Y3102D01*
X2097D01*
Y3105D01*
X2094D01*
Y3109D01*
X2091D01*
Y3112D01*
X2087D01*
Y3115D01*
X2084D01*
Y3119D01*
X2081D01*
Y3122D01*
X2074D01*
Y3125D01*
X2071D01*
Y3129D01*
X2064D01*
Y3132D01*
X2058D01*
Y3135D01*
X2054D01*
Y3139D01*
X2044D01*
Y3142D01*
X2038D01*
Y3145D01*
X2028D01*
Y3149D01*
X2018D01*
Y3152D01*
X1998D01*
Y3155D01*
D02*
G37*
G36*
X1746Y1579D02*
X1304D01*
Y1061D01*
X1746D01*
Y1579D01*
D02*
G37*
G36*
X2353Y965D02*
X1978D01*
Y580D01*
X2353D01*
Y965D01*
D02*
G37*
G36*
X1072D02*
X697D01*
Y580D01*
X1072D01*
Y965D01*
D02*
G37*
%LPD*%
G36*
X1633Y2724D02*
X1636D01*
Y2721D01*
X1639D01*
Y2717D01*
X1643D01*
Y2714D01*
X1646D01*
Y2711D01*
X1649D01*
Y2707D01*
X1653D01*
Y2704D01*
X1656D01*
Y2701D01*
X1659D01*
Y2697D01*
X1663D01*
Y2691D01*
X1666D01*
Y2687D01*
X1669D01*
Y2684D01*
X1673D01*
Y2677D01*
X1676D01*
Y2674D01*
X1679D01*
Y2667D01*
X1683D01*
Y2661D01*
X1686D01*
Y2657D01*
Y2654D01*
X1689D01*
Y2644D01*
X1693D01*
Y2634D01*
X1696D01*
Y2598D01*
X1693D01*
Y2588D01*
X1689D01*
Y2581D01*
X1686D01*
Y2575D01*
X1683D01*
Y2571D01*
X1679D01*
Y2568D01*
X1676D01*
Y2565D01*
X1673D01*
Y2561D01*
X1669D01*
Y2558D01*
X1663D01*
Y2555D01*
X1656D01*
Y2551D01*
X1646D01*
Y2548D01*
X1610D01*
Y2551D01*
X1600D01*
Y2555D01*
X1596D01*
Y2558D01*
X1590D01*
Y2561D01*
X1586D01*
Y2565D01*
X1583D01*
Y2568D01*
X1580D01*
Y2571D01*
X1576D01*
Y2575D01*
X1573D01*
Y2578D01*
X1570D01*
Y2584D01*
X1566D01*
Y2594D01*
X1563D01*
Y2638D01*
X1566D01*
Y2648D01*
X1570D01*
Y2654D01*
X1573D01*
Y2664D01*
X1576D01*
Y2667D01*
X1580D01*
Y2674D01*
X1583D01*
Y2681D01*
X1586D01*
Y2684D01*
X1590D01*
Y2687D01*
X1593D01*
Y2694D01*
X1596D01*
Y2697D01*
X1600D01*
Y2701D01*
X1603D01*
Y2704D01*
X1606D01*
Y2711D01*
X1610D01*
Y2714D01*
X1613D01*
Y2717D01*
X1616D01*
Y2721D01*
X1620D01*
Y2724D01*
X1623D01*
Y2727D01*
X1633D01*
Y2724D01*
D02*
G37*
G36*
X1464Y2648D02*
X1467D01*
Y2644D01*
X1470D01*
Y2641D01*
X1474D01*
Y2638D01*
X1477D01*
Y2634D01*
X1480D01*
Y2631D01*
X1484D01*
Y2628D01*
X1487D01*
Y2624D01*
X1490D01*
Y2621D01*
X1493D01*
Y2618D01*
X1497D01*
Y2614D01*
X1500D01*
Y2611D01*
X1503D01*
Y2608D01*
X1507D01*
Y2601D01*
X1510D01*
Y2598D01*
X1513D01*
Y2594D01*
X1517D01*
Y2591D01*
X1520D01*
Y2584D01*
X1523D01*
Y2581D01*
X1527D01*
Y2575D01*
X1530D01*
Y2571D01*
X1533D01*
Y2565D01*
X1537D01*
Y2561D01*
X1540D01*
Y2555D01*
X1543D01*
Y2548D01*
X1547D01*
Y2541D01*
X1550D01*
Y2535D01*
X1553D01*
Y2528D01*
X1557D01*
Y2518D01*
X1560D01*
Y2508D01*
X1563D01*
Y2495D01*
X1566D01*
Y2445D01*
X1563D01*
Y2435D01*
X1560D01*
Y2425D01*
X1557D01*
Y2419D01*
X1553D01*
Y2412D01*
X1550D01*
Y2409D01*
X1547D01*
Y2402D01*
X1543D01*
Y2399D01*
X1540D01*
Y2395D01*
X1537D01*
Y2392D01*
X1533D01*
Y2389D01*
X1530D01*
Y2385D01*
X1527D01*
Y2382D01*
X1520D01*
Y2379D01*
X1517D01*
Y2375D01*
X1510D01*
Y2372D01*
X1503D01*
Y2369D01*
X1493D01*
Y2365D01*
X1480D01*
Y2362D01*
X1440D01*
Y2365D01*
X1427D01*
Y2369D01*
X1420D01*
Y2372D01*
X1411D01*
Y2375D01*
X1407D01*
Y2379D01*
X1401D01*
Y2382D01*
X1397D01*
Y2385D01*
X1391D01*
Y2389D01*
X1387D01*
Y2392D01*
X1384D01*
Y2395D01*
X1381D01*
Y2399D01*
X1377D01*
Y2405D01*
X1374D01*
Y2409D01*
X1371D01*
Y2415D01*
X1367D01*
Y2419D01*
X1364D01*
Y2429D01*
X1361D01*
Y2435D01*
X1357D01*
Y2448D01*
X1354D01*
Y2488D01*
X1357D01*
Y2505D01*
X1361D01*
Y2515D01*
X1364D01*
Y2525D01*
X1367D01*
Y2531D01*
X1371D01*
Y2541D01*
X1374D01*
Y2548D01*
X1377D01*
Y2555D01*
X1381D01*
Y2558D01*
X1384D01*
Y2565D01*
X1387D01*
Y2568D01*
X1391D01*
Y2575D01*
X1394D01*
Y2578D01*
X1397D01*
Y2584D01*
X1401D01*
Y2588D01*
X1404D01*
Y2594D01*
X1407D01*
Y2598D01*
X1411D01*
Y2601D01*
X1414D01*
Y2604D01*
X1417D01*
Y2608D01*
X1420D01*
Y2614D01*
X1424D01*
Y2618D01*
X1427D01*
Y2621D01*
X1430D01*
Y2624D01*
X1434D01*
Y2628D01*
X1437D01*
Y2631D01*
X1440D01*
Y2634D01*
X1444D01*
Y2638D01*
X1447D01*
Y2641D01*
X1450D01*
Y2644D01*
X1454D01*
Y2648D01*
X1457D01*
Y2651D01*
X1464D01*
Y2648D01*
D02*
G37*
G36*
X1673Y2286D02*
X1676D01*
Y2263D01*
X1679D01*
Y2246D01*
X1683D01*
Y2229D01*
X1686D01*
Y2213D01*
X1689D01*
Y2196D01*
X1693D01*
Y2146D01*
X1689D01*
Y2133D01*
X1686D01*
Y2123D01*
X1683D01*
Y2117D01*
X1679D01*
Y2110D01*
X1676D01*
Y2107D01*
X1673D01*
Y2100D01*
X1669D01*
Y2097D01*
X1666D01*
Y2093D01*
X1663D01*
Y2090D01*
X1659D01*
Y2087D01*
X1656D01*
Y2083D01*
X1653D01*
Y2080D01*
X1649D01*
Y2077D01*
X1643D01*
Y2073D01*
X1639D01*
Y2070D01*
X1636D01*
Y2067D01*
X1630D01*
Y2063D01*
X1626D01*
Y2060D01*
X1620D01*
Y2057D01*
X1613D01*
Y2054D01*
X1606D01*
Y2050D01*
X1600D01*
Y2047D01*
X1593D01*
Y2044D01*
X1586D01*
Y2040D01*
X1573D01*
Y2047D01*
X1570D01*
Y2054D01*
X1566D01*
Y2057D01*
X1563D01*
Y2063D01*
X1560D01*
Y2070D01*
X1557D01*
Y2077D01*
X1553D01*
Y2087D01*
X1550D01*
Y2093D01*
X1547D01*
Y2107D01*
X1543D01*
Y2120D01*
X1540D01*
Y2160D01*
X1543D01*
Y2173D01*
X1547D01*
Y2180D01*
Y2183D01*
X1550D01*
Y2190D01*
X1553D01*
Y2200D01*
X1557D01*
Y2203D01*
X1560D01*
Y2210D01*
X1563D01*
Y2216D01*
X1566D01*
Y2219D01*
X1570D01*
Y2223D01*
X1573D01*
Y2229D01*
X1576D01*
Y2233D01*
X1580D01*
Y2236D01*
X1583D01*
Y2239D01*
X1586D01*
Y2243D01*
X1590D01*
Y2246D01*
X1593D01*
Y2249D01*
X1596D01*
Y2253D01*
X1600D01*
Y2256D01*
X1603D01*
Y2259D01*
X1606D01*
Y2263D01*
X1610D01*
Y2266D01*
X1613D01*
Y2269D01*
X1616D01*
Y2273D01*
X1620D01*
Y2276D01*
X1626D01*
Y2279D01*
X1630D01*
Y2283D01*
X1633D01*
Y2286D01*
X1636D01*
Y2289D01*
X1643D01*
Y2292D01*
X1646D01*
Y2296D01*
X1649D01*
Y2299D01*
X1656D01*
Y2302D01*
X1659D01*
Y2306D01*
X1666D01*
Y2309D01*
X1669D01*
Y2312D01*
X1673D01*
Y2286D01*
D02*
G37*
G36*
X1812Y2077D02*
X1815D01*
Y2054D01*
X1819D01*
Y2034D01*
X1815D01*
Y2007D01*
X1812D01*
Y1994D01*
X1809D01*
Y1984D01*
X1805D01*
Y1974D01*
X1802D01*
Y1964D01*
X1799D01*
Y1957D01*
X1795D01*
Y1951D01*
X1792D01*
Y1944D01*
X1789D01*
Y1941D01*
X1785D01*
Y1934D01*
X1782D01*
Y1931D01*
X1779D01*
Y1924D01*
X1776D01*
Y1921D01*
X1772D01*
Y1917D01*
X1769D01*
Y1914D01*
X1766D01*
Y1911D01*
X1762D01*
Y1908D01*
X1759D01*
Y1904D01*
X1756D01*
Y1901D01*
X1752D01*
Y1898D01*
X1749D01*
Y1894D01*
X1746D01*
Y1891D01*
X1739D01*
Y1888D01*
X1736D01*
Y1884D01*
X1729D01*
Y1881D01*
X1726D01*
Y1878D01*
X1719D01*
Y1874D01*
X1712D01*
Y1871D01*
X1703D01*
Y1868D01*
X1696D01*
Y1864D01*
X1686D01*
Y1861D01*
X1673D01*
Y1858D01*
X1653D01*
Y1854D01*
X1600D01*
Y1861D01*
X1596D01*
Y1914D01*
X1600D01*
Y1931D01*
X1603D01*
Y1944D01*
X1606D01*
Y1954D01*
X1610D01*
Y1964D01*
X1613D01*
Y1971D01*
X1616D01*
Y1981D01*
X1620D01*
Y1984D01*
X1623D01*
Y1990D01*
X1626D01*
Y1997D01*
X1630D01*
Y2000D01*
X1633D01*
Y2007D01*
X1636D01*
Y2010D01*
X1639D01*
Y2014D01*
X1643D01*
Y2017D01*
X1646D01*
Y2020D01*
X1649D01*
Y2024D01*
X1653D01*
Y2027D01*
X1656D01*
Y2030D01*
X1659D01*
Y2034D01*
X1663D01*
Y2037D01*
X1669D01*
Y2040D01*
X1673D01*
Y2044D01*
X1676D01*
Y2047D01*
X1683D01*
Y2050D01*
X1689D01*
Y2054D01*
X1693D01*
Y2057D01*
X1699D01*
Y2060D01*
X1709D01*
Y2063D01*
X1716D01*
Y2067D01*
X1726D01*
Y2070D01*
X1736D01*
Y2073D01*
X1749D01*
Y2077D01*
X1762D01*
Y2080D01*
X1785D01*
Y2083D01*
X1812D01*
Y2077D01*
D02*
G37*
G36*
X1251Y2223D02*
X1255D01*
Y2219D01*
X1258D01*
Y2216D01*
X1261D01*
Y2213D01*
X1265D01*
Y2210D01*
X1268D01*
Y2206D01*
X1271D01*
Y2203D01*
X1274D01*
Y2200D01*
X1278D01*
Y2196D01*
X1281D01*
Y2193D01*
X1284D01*
Y2190D01*
X1291D01*
Y2186D01*
X1294D01*
Y2183D01*
X1298D01*
Y2180D01*
X1304D01*
Y2176D01*
X1308D01*
Y2173D01*
X1314D01*
Y2170D01*
X1318D01*
Y2166D01*
X1324D01*
Y2163D01*
X1331D01*
Y2160D01*
X1338D01*
Y2156D01*
X1344D01*
Y2153D01*
X1351D01*
Y2150D01*
X1361D01*
Y2146D01*
X1371D01*
Y2143D01*
X1381D01*
Y2140D01*
X1394D01*
Y2137D01*
X1411D01*
Y2133D01*
X1430D01*
Y2130D01*
X1444D01*
Y2127D01*
X1454D01*
Y2123D01*
X1464D01*
Y2120D01*
X1470D01*
Y2117D01*
X1477D01*
Y2113D01*
X1480D01*
Y2110D01*
X1487D01*
Y2107D01*
X1490D01*
Y2103D01*
X1493D01*
Y2100D01*
X1497D01*
Y2097D01*
X1500D01*
Y2093D01*
X1503D01*
Y2090D01*
X1507D01*
Y2087D01*
X1510D01*
Y2083D01*
X1513D01*
Y2077D01*
X1517D01*
Y2073D01*
X1520D01*
Y2067D01*
X1523D01*
Y2060D01*
X1527D01*
Y2057D01*
X1530D01*
Y2047D01*
X1533D01*
Y2040D01*
X1537D01*
Y2034D01*
X1540D01*
Y2024D01*
X1543D01*
Y2014D01*
X1547D01*
Y2000D01*
X1550D01*
Y1984D01*
X1553D01*
Y1964D01*
X1557D01*
Y1927D01*
X1560D01*
Y1881D01*
X1557D01*
Y1844D01*
X1553D01*
Y1841D01*
X1510D01*
Y1844D01*
X1474D01*
Y1848D01*
X1454D01*
Y1851D01*
X1437D01*
Y1854D01*
X1424D01*
Y1858D01*
X1414D01*
Y1861D01*
X1404D01*
Y1864D01*
X1394D01*
Y1868D01*
X1384D01*
Y1871D01*
X1377D01*
Y1874D01*
X1371D01*
Y1878D01*
X1364D01*
Y1881D01*
X1357D01*
Y1884D01*
X1351D01*
Y1888D01*
X1347D01*
Y1891D01*
X1341D01*
Y1894D01*
X1338D01*
Y1898D01*
X1331D01*
Y1901D01*
X1328D01*
Y1904D01*
X1324D01*
Y1908D01*
X1321D01*
Y1911D01*
X1314D01*
Y1914D01*
X1311D01*
Y1917D01*
X1308D01*
Y1921D01*
X1304D01*
Y1924D01*
X1301D01*
Y1927D01*
X1298D01*
Y1931D01*
X1294D01*
Y1937D01*
X1291D01*
Y1941D01*
X1288D01*
Y1944D01*
X1284D01*
Y1947D01*
X1281D01*
Y1954D01*
X1278D01*
Y1957D01*
X1274D01*
Y1964D01*
X1271D01*
Y1971D01*
X1268D01*
Y1974D01*
X1265D01*
Y1981D01*
X1261D01*
Y1990D01*
X1258D01*
Y1997D01*
X1255D01*
Y2007D01*
X1251D01*
Y2017D01*
X1248D01*
Y2027D01*
X1245D01*
Y2037D01*
X1241D01*
Y2054D01*
X1238D01*
Y2073D01*
X1235D01*
Y2176D01*
X1238D01*
Y2200D01*
X1241D01*
Y2216D01*
X1245D01*
Y2229D01*
X1251D01*
Y2223D01*
D02*
G37*
%LPC*%
G36*
X1450Y2465D02*
X1437D01*
Y2462D01*
X1434D01*
Y2452D01*
X1437D01*
Y2445D01*
X1440D01*
Y2442D01*
X1447D01*
Y2438D01*
X1457D01*
Y2442D01*
X1460D01*
Y2452D01*
X1457D01*
Y2458D01*
X1454D01*
Y2462D01*
X1450D01*
Y2465D01*
D02*
G37*
G36*
X1420Y2442D02*
X1404D01*
Y2438D01*
X1401D01*
Y2422D01*
X1404D01*
Y2415D01*
X1407D01*
Y2412D01*
X1414D01*
Y2409D01*
X1417D01*
Y2405D01*
X1434D01*
Y2409D01*
X1437D01*
Y2425D01*
X1434D01*
Y2432D01*
X1430D01*
Y2435D01*
X1427D01*
Y2438D01*
X1420D01*
Y2442D01*
D02*
G37*
G36*
X1646Y2263D02*
X1643D01*
Y2259D01*
X1646D01*
Y2263D01*
D02*
G37*
G36*
X1643Y2259D02*
X1639D01*
Y2256D01*
X1643D01*
Y2259D01*
D02*
G37*
G36*
X1639Y2256D02*
X1633D01*
Y2249D01*
X1630D01*
Y2246D01*
X1626D01*
Y2243D01*
X1623D01*
Y2239D01*
X1620D01*
Y2233D01*
X1616D01*
Y2229D01*
X1613D01*
Y2223D01*
X1610D01*
Y2219D01*
X1606D01*
Y2213D01*
X1603D01*
Y2206D01*
X1600D01*
Y2200D01*
X1596D01*
Y2193D01*
X1593D01*
Y2183D01*
X1590D01*
Y2176D01*
X1586D01*
Y2163D01*
X1583D01*
Y2160D01*
Y2156D01*
Y2150D01*
X1580D01*
Y2127D01*
X1576D01*
Y2083D01*
X1580D01*
Y2063D01*
X1583D01*
Y2083D01*
X1586D01*
Y2113D01*
X1590D01*
Y2130D01*
X1593D01*
Y2146D01*
X1596D01*
Y2156D01*
X1600D01*
Y2170D01*
X1603D01*
Y2180D01*
X1606D01*
Y2186D01*
X1610D01*
Y2196D01*
X1613D01*
Y2203D01*
X1616D01*
Y2210D01*
X1620D01*
Y2219D01*
X1623D01*
Y2226D01*
X1626D01*
Y2233D01*
X1630D01*
Y2236D01*
X1633D01*
Y2243D01*
X1636D01*
Y2249D01*
X1639D01*
Y2256D01*
D02*
G37*
G36*
X1779Y2044D02*
X1776D01*
Y2040D01*
X1779D01*
Y2044D01*
D02*
G37*
G36*
X1776Y2040D02*
X1772D01*
Y2037D01*
X1769D01*
Y2030D01*
X1766D01*
Y2027D01*
X1762D01*
Y2024D01*
X1759D01*
Y2017D01*
X1756D01*
Y2014D01*
X1752D01*
Y2010D01*
X1749D01*
Y2007D01*
X1746D01*
Y2004D01*
X1742D01*
Y2000D01*
X1739D01*
Y1997D01*
X1736D01*
Y1990D01*
X1732D01*
Y1987D01*
X1729D01*
Y1984D01*
X1726D01*
Y1981D01*
X1722D01*
Y1977D01*
X1719D01*
Y1974D01*
X1716D01*
Y1971D01*
X1712D01*
Y1967D01*
X1709D01*
Y1964D01*
X1706D01*
Y1961D01*
X1703D01*
Y1957D01*
X1699D01*
Y1954D01*
X1696D01*
Y1951D01*
X1693D01*
Y1947D01*
X1689D01*
Y1944D01*
X1686D01*
Y1941D01*
X1679D01*
Y1937D01*
X1676D01*
Y1934D01*
X1673D01*
Y1931D01*
X1669D01*
Y1927D01*
X1666D01*
Y1924D01*
X1663D01*
Y1921D01*
X1659D01*
Y1917D01*
X1656D01*
Y1914D01*
X1653D01*
Y1911D01*
X1649D01*
Y1908D01*
X1646D01*
Y1904D01*
X1643D01*
Y1901D01*
X1639D01*
Y1898D01*
X1636D01*
Y1894D01*
X1633D01*
Y1891D01*
X1630D01*
Y1888D01*
X1626D01*
Y1884D01*
X1623D01*
Y1881D01*
X1630D01*
Y1884D01*
X1633D01*
Y1888D01*
X1639D01*
Y1891D01*
X1643D01*
Y1894D01*
X1649D01*
Y1898D01*
X1653D01*
Y1901D01*
X1659D01*
Y1904D01*
X1663D01*
Y1908D01*
X1669D01*
Y1911D01*
X1673D01*
Y1914D01*
X1676D01*
Y1917D01*
X1679D01*
Y1921D01*
X1686D01*
Y1924D01*
X1689D01*
Y1927D01*
X1693D01*
Y1931D01*
X1696D01*
Y1934D01*
X1699D01*
Y1937D01*
X1706D01*
Y1941D01*
X1709D01*
Y1944D01*
X1712D01*
Y1947D01*
X1716D01*
Y1951D01*
X1719D01*
Y1954D01*
X1722D01*
Y1957D01*
X1726D01*
Y1961D01*
X1729D01*
Y1967D01*
X1732D01*
Y1971D01*
X1736D01*
Y1974D01*
X1739D01*
Y1977D01*
X1742D01*
Y1981D01*
X1746D01*
Y1987D01*
X1749D01*
Y1990D01*
X1752D01*
Y1997D01*
X1756D01*
Y2000D01*
X1759D01*
Y2007D01*
X1762D01*
Y2010D01*
X1766D01*
Y2017D01*
X1769D01*
Y2024D01*
X1772D01*
Y2034D01*
X1776D01*
Y2040D01*
D02*
G37*
G36*
X1278Y2140D02*
X1274D01*
Y2137D01*
X1278D01*
Y2140D01*
D02*
G37*
G36*
X1281Y2133D02*
X1278D01*
Y2127D01*
X1281D01*
Y2113D01*
X1284D01*
Y2107D01*
X1288D01*
Y2097D01*
X1291D01*
Y2090D01*
X1294D01*
Y2080D01*
X1298D01*
Y2073D01*
X1301D01*
Y2067D01*
X1304D01*
Y2060D01*
X1308D01*
Y2054D01*
X1311D01*
Y2047D01*
X1314D01*
Y2044D01*
X1318D01*
Y2037D01*
X1321D01*
Y2030D01*
X1324D01*
Y2027D01*
X1328D01*
Y2020D01*
X1331D01*
Y2017D01*
X1334D01*
Y2010D01*
X1338D01*
Y2007D01*
X1341D01*
Y2000D01*
X1344D01*
Y1997D01*
X1347D01*
Y1994D01*
X1351D01*
Y1987D01*
X1354D01*
Y1984D01*
X1357D01*
Y1981D01*
X1361D01*
Y1977D01*
X1364D01*
Y1971D01*
X1367D01*
Y1967D01*
X1371D01*
Y1964D01*
X1374D01*
Y1961D01*
X1377D01*
Y1957D01*
X1381D01*
Y1954D01*
X1384D01*
Y1951D01*
X1387D01*
Y1947D01*
X1391D01*
Y1944D01*
X1394D01*
Y1941D01*
X1397D01*
Y1937D01*
X1401D01*
Y1934D01*
X1404D01*
Y1931D01*
X1407D01*
Y1927D01*
X1414D01*
Y1924D01*
X1417D01*
Y1921D01*
X1420D01*
Y1917D01*
X1427D01*
Y1914D01*
X1430D01*
Y1911D01*
X1434D01*
Y1908D01*
X1437D01*
Y1904D01*
X1444D01*
Y1901D01*
X1450D01*
Y1898D01*
X1454D01*
Y1894D01*
X1460D01*
Y1891D01*
X1464D01*
Y1888D01*
X1470D01*
Y1884D01*
X1477D01*
Y1881D01*
X1484D01*
Y1878D01*
X1490D01*
Y1874D01*
X1497D01*
Y1871D01*
X1507D01*
Y1868D01*
X1513D01*
Y1864D01*
X1523D01*
Y1861D01*
X1533D01*
Y1858D01*
X1537D01*
Y1861D01*
X1533D01*
Y1864D01*
X1527D01*
Y1868D01*
X1520D01*
Y1871D01*
X1513D01*
Y1874D01*
X1507D01*
Y1878D01*
X1503D01*
Y1881D01*
X1497D01*
Y1884D01*
X1493D01*
Y1888D01*
X1487D01*
Y1891D01*
X1484D01*
Y1894D01*
X1477D01*
Y1898D01*
X1474D01*
Y1901D01*
X1467D01*
Y1904D01*
X1464D01*
Y1908D01*
X1460D01*
Y1911D01*
X1454D01*
Y1914D01*
X1450D01*
Y1917D01*
X1447D01*
Y1921D01*
X1444D01*
Y1924D01*
X1440D01*
Y1927D01*
X1434D01*
Y1931D01*
X1430D01*
Y1934D01*
X1427D01*
Y1937D01*
X1424D01*
Y1941D01*
X1420D01*
Y1944D01*
X1417D01*
Y1947D01*
X1414D01*
Y1951D01*
X1411D01*
Y1954D01*
X1407D01*
Y1957D01*
X1404D01*
Y1961D01*
X1401D01*
Y1964D01*
X1397D01*
Y1967D01*
X1394D01*
Y1971D01*
X1391D01*
Y1974D01*
X1387D01*
Y1977D01*
X1384D01*
Y1981D01*
X1381D01*
Y1984D01*
X1377D01*
Y1987D01*
X1374D01*
Y1994D01*
X1371D01*
Y1997D01*
X1367D01*
Y2000D01*
X1364D01*
Y2004D01*
X1361D01*
Y2007D01*
X1357D01*
Y2014D01*
X1354D01*
Y2017D01*
X1351D01*
Y2020D01*
X1347D01*
Y2027D01*
X1344D01*
Y2030D01*
X1341D01*
Y2034D01*
X1338D01*
Y2040D01*
X1334D01*
Y2044D01*
X1331D01*
Y2050D01*
X1328D01*
Y2054D01*
X1324D01*
Y2060D01*
X1321D01*
Y2063D01*
X1318D01*
Y2070D01*
X1314D01*
Y2077D01*
X1311D01*
Y2080D01*
X1308D01*
Y2087D01*
X1304D01*
Y2093D01*
X1301D01*
Y2097D01*
X1298D01*
Y2103D01*
X1294D01*
Y2110D01*
X1291D01*
Y2117D01*
X1288D01*
Y2120D01*
X1284D01*
Y2127D01*
X1281D01*
Y2133D01*
D02*
G37*
%LPD*%
D50*
X2362Y2481D02*
X2412D01*
Y2456D01*
X2404Y2447D01*
X2395D01*
X2387Y2456D01*
Y2481D01*
Y2456D01*
X2379Y2447D01*
X2370D01*
X2362Y2456D01*
Y2481D01*
X2412Y2431D02*
X2379D01*
X2362Y2414D01*
X2379Y2397D01*
X2412D01*
X2387D01*
Y2431D01*
X2362Y2381D02*
Y2347D01*
Y2364D01*
X2412D01*
X2362Y2331D02*
Y2297D01*
Y2314D01*
X2412D01*
X2387Y2281D02*
Y2247D01*
X2362Y2147D02*
Y2181D01*
X2412D01*
Y2147D01*
X2387Y2181D02*
Y2164D01*
X2362Y2131D02*
X2412Y2097D01*
X2362D02*
X2412Y2131D01*
X2362Y2081D02*
Y2047D01*
Y2064D01*
X2412D01*
X687Y1838D02*
X637D01*
Y1872D01*
X687Y1888D02*
X646D01*
X637Y1897D01*
Y1913D01*
X646Y1922D01*
X687D01*
Y1938D02*
Y1972D01*
X679D01*
X646Y1938D01*
X637D01*
Y1972D01*
X608Y1863D02*
X566D01*
X558Y1872D01*
Y1888D01*
X566Y1897D01*
X608D01*
Y1913D02*
X575D01*
X558Y1930D01*
X575Y1947D01*
X608D01*
X666Y2644D02*
X616D01*
Y2669D01*
X624Y2678D01*
X633D01*
X641Y2669D01*
Y2644D01*
Y2669D01*
X649Y2678D01*
X658D01*
X666Y2669D01*
Y2644D01*
Y2719D02*
Y2703D01*
X658Y2694D01*
X624D01*
X616Y2703D01*
Y2719D01*
X624Y2728D01*
X658D01*
X666Y2719D01*
X616Y2744D02*
X666D01*
X649Y2761D01*
X666Y2778D01*
X616D01*
X666Y2794D02*
X616D01*
Y2819D01*
X624Y2828D01*
X633D01*
X641Y2819D01*
Y2794D01*
Y2819D01*
X649Y2828D01*
X658D01*
X666Y2819D01*
Y2794D01*
X616Y2844D02*
X649D01*
X666Y2861D01*
X649Y2878D01*
X616D01*
X641D01*
Y2844D01*
X664Y2244D02*
X614D01*
Y2269D01*
X622Y2278D01*
X631D01*
X639Y2269D01*
Y2244D01*
Y2269D01*
X647Y2278D01*
X656D01*
X664Y2269D01*
Y2244D01*
Y2319D02*
Y2303D01*
X656Y2294D01*
X622D01*
X614Y2303D01*
Y2319D01*
X622Y2328D01*
X656D01*
X664Y2319D01*
X614Y2344D02*
X664D01*
X647Y2361D01*
X664Y2378D01*
X614D01*
X664Y2394D02*
X614D01*
Y2419D01*
X622Y2428D01*
X631D01*
X639Y2419D01*
Y2394D01*
Y2419D01*
X647Y2428D01*
X656D01*
X664Y2419D01*
Y2394D01*
X614Y2444D02*
X647D01*
X664Y2461D01*
X647Y2478D01*
X614D01*
X639D01*
Y2444D01*
X540Y2753D02*
Y2769D01*
Y2761D01*
X590D01*
X582Y2753D01*
X534Y2378D02*
Y2344D01*
X567Y2378D01*
X576D01*
X584Y2369D01*
Y2353D01*
X576Y2344D01*
X2437Y2397D02*
Y2431D01*
X2462D01*
X2454Y2414D01*
Y2406D01*
X2462Y2397D01*
X2479D01*
X2487Y2406D01*
Y2422D01*
X2479Y2431D01*
X2437Y2381D02*
X2470D01*
X2487Y2364D01*
X2470Y2347D01*
X2437D01*
X2462Y2281D02*
Y2247D01*
X2479Y2181D02*
X2487Y2172D01*
Y2156D01*
X2479Y2147D01*
X2445D01*
X2437Y2156D01*
Y2172D01*
X2445Y2181D01*
X2454D01*
X2462Y2172D01*
Y2147D01*
X2437Y2131D02*
X2470D01*
X2487Y2114D01*
X2470Y2097D01*
X2437D01*
M02*
