G04*
G04 #@! TF.GenerationSoftware,Altium Limited,Altium Designer,22.0.2 (36)*
G04*
G04 Layer_Color=255*
%FSLAX23Y23*%
%MOIN*%
G70*
G04*
G04 #@! TF.SameCoordinates,FFE58276-D16A-40DC-94CB-801E61EA4FAC*
G04*
G04*
G04 #@! TF.FilePolarity,Positive*
G04*
G01*
G75*
%ADD22R,0.061X0.061*%
%ADD40C,0.063*%
%ADD41R,0.063X0.063*%
%ADD42C,0.157*%
%ADD43C,0.075*%
%ADD44C,0.077*%
%ADD45R,0.077X0.077*%
%ADD46C,0.061*%
%ADD47C,0.059*%
%ADD48R,0.059X0.059*%
D22*
X830Y1130D02*
D03*
D40*
X2500Y1811D02*
D03*
Y1611D02*
D03*
Y1711D02*
D03*
Y1911D02*
D03*
Y2011D02*
D03*
X2320Y2850D02*
D03*
Y2750D02*
D03*
Y2650D02*
D03*
X745Y1993D02*
D03*
D41*
X2500Y1511D02*
D03*
X2320Y2550D02*
D03*
X745Y1797D02*
D03*
D42*
X1510Y2850D02*
D03*
Y1295D02*
D03*
D43*
X1025Y2705D02*
D03*
Y2805D02*
D03*
Y2905D02*
D03*
Y3005D02*
D03*
Y2605D02*
D03*
Y2505D02*
D03*
Y2405D02*
D03*
Y2305D02*
D03*
Y2205D02*
D03*
Y2105D02*
D03*
Y1705D02*
D03*
Y1805D02*
D03*
Y1905D02*
D03*
Y2005D02*
D03*
Y1605D02*
D03*
Y1505D02*
D03*
Y1405D02*
D03*
Y1305D02*
D03*
Y1205D02*
D03*
X2025Y2705D02*
D03*
Y2805D02*
D03*
Y2905D02*
D03*
Y3005D02*
D03*
Y2605D02*
D03*
Y2505D02*
D03*
Y2405D02*
D03*
Y2305D02*
D03*
Y2205D02*
D03*
Y2105D02*
D03*
Y1705D02*
D03*
Y1805D02*
D03*
Y1905D02*
D03*
Y2005D02*
D03*
Y1605D02*
D03*
Y1505D02*
D03*
Y1405D02*
D03*
Y1305D02*
D03*
Y1205D02*
D03*
D44*
X2308Y2201D02*
D03*
X742Y2285D02*
D03*
Y2700D02*
D03*
D45*
X2308Y2339D02*
D03*
X742Y2423D02*
D03*
Y2838D02*
D03*
D46*
X630Y1130D02*
D03*
X730D02*
D03*
D47*
X2255D02*
D03*
X2353D02*
D03*
D48*
X2452D02*
D03*
M02*
