M48
;Layer_Color=9474304
;FILE_FORMAT=2:4
INCH,LZ
;TYPE=PLATED
T1F00S00C0.0280
T2F00S00C0.0394
T3F00S00C0.0402
T4F00S00C0.0433
T5F00S00C0.0512
T6F00S00C0.1260
%
T01
X00825Y0067
X00995Y0083
X0096Y00945
X01115Y01255
X0211Y00665
X02105Y01855
Y01955
X0172Y02095
X0176Y0214
X01805Y022
X0163Y02335
X01895Y025
X01875Y028
X0155Y02275
X015172Y022228
X01225Y02285
X0117Y0232
Y0219
X01225Y02145
X01265Y02085
Y0236
X0121Y01855
X0141Y01735
X0152Y01715
T02
X02255Y0113
X023534
X024518
T03
X0063Y0113
X0073
X0083
X01025Y01205
Y01305
Y01405
Y01505
X02025
Y01405
Y01305
Y01205
Y01605
Y01705
Y01805
Y01905
Y02005
Y02105
Y02205
Y02305
Y02405
Y02505
Y02605
Y02705
Y02805
Y02905
Y03005
X01025
Y02905
Y02805
Y02705
Y02605
Y02505
Y02405
Y02305
Y02205
Y02105
Y02005
Y01905
Y01805
Y01705
Y01605
T04
X025Y01511
Y01611
Y01711
Y01811
Y01911
Y02011
X0232Y0255
Y0265
Y0275
Y0285
X00745Y019934
Y017966
T05
X023082Y022011
Y023389
X007424Y02285
Y024228
Y026999
Y028377
T06
X0151Y01295
Y0285
M30
