G04*
G04 #@! TF.GenerationSoftware,Altium Limited,Altium Designer,22.0.2 (36)*
G04*
G04 Layer_Color=16711935*
%FSLAX23Y23*%
%MOIN*%
G70*
G04*
G04 #@! TF.SameCoordinates,FFE58276-D16A-40DC-94CB-801E61EA4FAC*
G04*
G04*
G04 #@! TF.FilePolarity,Positive*
G04*
G01*
G75*
%ADD16C,0.010*%
D16*
X366Y1133D02*
G03*
X366Y1128I258J-5D01*
G01*
X399Y1254D02*
G03*
X381Y1215I220J-126D01*
G01*
X611Y3065D02*
G03*
X486Y2930I18J-142D01*
G01*
X1021Y3363D02*
G03*
X849Y3291I51J-368D01*
G01*
X2684Y1161D02*
G03*
X2644Y1268I-250J-33D01*
G01*
X2567Y2930D02*
G03*
X2566Y2940I-144J-7D01*
G01*
X2116Y3341D02*
G03*
X2009Y3365I-135J-345D01*
G01*
X1165Y390D02*
G03*
X1170Y391I0J92D01*
G01*
X511Y470D02*
G03*
X596Y390I90J11D01*
G01*
X1256Y476D02*
G03*
X1256Y481I-92J5D01*
G01*
X2452Y390D02*
G03*
X2457Y391I0J92D01*
G01*
X1459Y3592D02*
G03*
X1379Y3507I11J-90D01*
G01*
X1673Y3507D02*
G03*
X1673Y3514I-91J-5D01*
G01*
X1798Y470D02*
G03*
X1883Y390I90J11D01*
G01*
X2542Y476D02*
G03*
X2542Y481I-92J5D01*
G01*
X2591Y929D02*
G03*
X2675Y1054I-160J200D01*
G01*
X849Y3291D02*
G03*
X734Y3150I226J-301D01*
G01*
X2687Y1128D02*
G03*
X2686Y1141I-257J0D01*
G01*
X1073Y3366D02*
G03*
X1052Y3366I-0J-378D01*
G01*
X2644Y1268D02*
G03*
X2567Y1343I-215J-142D01*
G01*
X2566Y2940D02*
G03*
X2431Y3066I-142J-18D01*
G01*
X510Y481D02*
G03*
X510Y476I92J-0D01*
G01*
X366Y1128D02*
G03*
X367Y1107I256J-0D01*
G01*
X381Y1215D02*
G03*
X367Y1148I237J-87D01*
G01*
X486Y2930D02*
G03*
X486Y2923I145J-7D01*
G01*
X629Y3066D02*
G03*
X621Y3066I-0J-146D01*
G01*
X2346Y3066D02*
G03*
X2296Y3191I-364J-73D01*
G01*
X1673Y3514D02*
G03*
X1588Y3593I-90J-11D01*
G01*
X2009Y3365D02*
G03*
X1986Y3366I-29J-376D01*
G01*
X596Y390D02*
G03*
X600Y390I5J92D01*
G01*
X1170Y391D02*
G03*
X1176Y391I-5J91D01*
G01*
X1797Y481D02*
G03*
X1797Y476I92J-0D01*
G01*
X2457Y391D02*
G03*
X2463Y391I-5J91D01*
G01*
X1379Y3507D02*
G03*
X1379Y3503I92J-5D01*
G01*
X1470Y3593D02*
G03*
X1465Y3593I-0J-92D01*
G01*
X1883Y390D02*
G03*
X1887Y390I5J92D01*
G01*
X486Y1343D02*
G03*
X399Y1254I137J-218D01*
G01*
X621Y3066D02*
G03*
X611Y3065I7J-144D01*
G01*
X2675Y1054D02*
G03*
X2686Y1117I-242J74D01*
G01*
X734Y3150D02*
G03*
X706Y3066I336J-157D01*
G01*
X2686Y1141D02*
G03*
X2684Y1161I-254J-13D01*
G01*
X1052Y3366D02*
G03*
X1021Y3363I21J-373D01*
G01*
X2431Y3066D02*
G03*
X2424Y3066I-7J-145D01*
G01*
X2296Y3191D02*
G03*
X2116Y3341I-318J-201D01*
G01*
X510Y476D02*
G03*
X511Y470I91J5D01*
G01*
X367Y1107D02*
G03*
X510Y898I254J21D01*
G01*
X367Y1148D02*
G03*
X366Y1133I255J-20D01*
G01*
X2567Y2923D02*
G03*
X2567Y2930I-146J0D01*
G01*
X1465Y3593D02*
G03*
X1459Y3592I5J-91D01*
G01*
X1588Y3593D02*
G03*
X1583Y3593I-5J-92D01*
G01*
X1673Y3503D02*
G03*
X1673Y3507I-92J0D01*
G01*
X1176Y391D02*
G03*
X1256Y476I-11J90D01*
G01*
X1797Y476D02*
G03*
X1798Y470I91J5D01*
G01*
X2463Y391D02*
G03*
X2542Y476I-11J90D01*
G01*
X2542Y898D02*
G03*
X2591Y929I-111J229D01*
G01*
X2686Y1117D02*
G03*
X2687Y1128I-256J10D01*
G01*
X629Y3066D02*
X706D01*
X2346D02*
X2424D01*
X1673Y3366D02*
X1980D01*
X510Y481D02*
Y898D01*
X1073Y3366D02*
X1379D01*
X2567Y1343D02*
Y2923D01*
X1470Y3593D02*
X1583D01*
X1797Y481D02*
Y873D01*
X1673Y3366D02*
Y3503D01*
X1256Y481D02*
Y873D01*
X2542Y481D02*
Y898D01*
X600Y390D02*
X1165D01*
X486Y1343D02*
Y2923D01*
X1980Y3366D02*
X1986Y3366D01*
X1256Y873D02*
X1797D01*
X1887Y390D02*
X2452D01*
X1379Y3366D02*
Y3503D01*
M02*
