G04*
G04 #@! TF.GenerationSoftware,Altium Limited,Altium Designer,22.0.2 (36)*
G04*
G04 Layer_Color=128*
%FSLAX23Y23*%
%MOIN*%
G70*
G04*
G04 #@! TF.SameCoordinates,FFE58276-D16A-40DC-94CB-801E61EA4FAC*
G04*
G04*
G04 #@! TF.FilePolarity,Positive*
G04*
G01*
G75*
%ADD51C,0.002*%
D51*
X2478Y1811D02*
X2522D01*
X2500Y1789D02*
Y1833D01*
X2478Y1611D02*
X2522D01*
X2500Y1589D02*
Y1633D01*
X2478Y1511D02*
X2522D01*
X2500Y1489D02*
Y1533D01*
X2478Y1711D02*
X2522D01*
X2500Y1689D02*
Y1733D01*
X2478Y1911D02*
X2522D01*
X2500Y1889D02*
Y1933D01*
X2478Y2011D02*
X2522D01*
X2500Y1989D02*
Y2033D01*
X1447Y2850D02*
X1573D01*
X1510Y2787D02*
Y2913D01*
X1447Y1295D02*
X1573D01*
X1510Y1232D02*
Y1358D01*
X1005Y2705D02*
X1045D01*
X1025Y2685D02*
Y2725D01*
X1005Y2805D02*
X1045D01*
X1025Y2785D02*
Y2825D01*
X1005Y2905D02*
X1045D01*
X1025Y2885D02*
Y2925D01*
X1005Y3005D02*
X1045D01*
X1025Y2985D02*
Y3025D01*
X1005Y2605D02*
X1045D01*
X1025Y2585D02*
Y2625D01*
X1005Y2505D02*
X1045D01*
X1025Y2485D02*
Y2525D01*
X1005Y2405D02*
X1045D01*
X1025Y2385D02*
Y2425D01*
X1005Y2305D02*
X1045D01*
X1025Y2285D02*
Y2325D01*
X1005Y2205D02*
X1045D01*
X1025Y2185D02*
Y2225D01*
X1005Y2105D02*
X1045D01*
X1025Y2085D02*
Y2125D01*
X1005Y1705D02*
X1045D01*
X1025Y1685D02*
Y1725D01*
X1005Y1805D02*
X1045D01*
X1025Y1785D02*
Y1825D01*
X1005Y1905D02*
X1045D01*
X1025Y1885D02*
Y1925D01*
X1005Y2005D02*
X1045D01*
X1025Y1985D02*
Y2025D01*
X1005Y1605D02*
X1045D01*
X1025Y1585D02*
Y1625D01*
X1005Y1505D02*
X1045D01*
X1025Y1485D02*
Y1525D01*
X1005Y1405D02*
X1045D01*
X1025Y1385D02*
Y1425D01*
X1005Y1305D02*
X1045D01*
X1025Y1285D02*
Y1325D01*
X1005Y1205D02*
X1045D01*
X1025Y1185D02*
Y1225D01*
X2005Y2705D02*
X2045D01*
X2025Y2685D02*
Y2725D01*
X2005Y2805D02*
X2045D01*
X2025Y2785D02*
Y2825D01*
X2005Y2905D02*
X2045D01*
X2025Y2885D02*
Y2925D01*
X2005Y3005D02*
X2045D01*
X2025Y2985D02*
Y3025D01*
X2005Y2605D02*
X2045D01*
X2025Y2585D02*
Y2625D01*
X2005Y2505D02*
X2045D01*
X2025Y2485D02*
Y2525D01*
X2005Y2405D02*
X2045D01*
X2025Y2385D02*
Y2425D01*
X2005Y2305D02*
X2045D01*
X2025Y2285D02*
Y2325D01*
X2005Y2205D02*
X2045D01*
X2025Y2185D02*
Y2225D01*
X2005Y2105D02*
X2045D01*
X2025Y2085D02*
Y2125D01*
X2005Y1705D02*
X2045D01*
X2025Y1685D02*
Y1725D01*
X2005Y1805D02*
X2045D01*
X2025Y1785D02*
Y1825D01*
X2005Y1905D02*
X2045D01*
X2025Y1885D02*
Y1925D01*
X2005Y2005D02*
X2045D01*
X2025Y1985D02*
Y2025D01*
X2005Y1605D02*
X2045D01*
X2025Y1585D02*
Y1625D01*
X2005Y1505D02*
X2045D01*
X2025Y1485D02*
Y1525D01*
X2005Y1405D02*
X2045D01*
X2025Y1385D02*
Y1425D01*
X2005Y1305D02*
X2045D01*
X2025Y1285D02*
Y1325D01*
X2005Y1205D02*
X2045D01*
X2025Y1185D02*
Y1225D01*
X2283Y2201D02*
X2334D01*
X2308Y2176D02*
Y2227D01*
X2283Y2339D02*
X2334D01*
X2308Y2313D02*
Y2364D01*
X2298Y2850D02*
X2342D01*
X2320Y2828D02*
Y2872D01*
X2298Y2750D02*
X2342D01*
X2320Y2728D02*
Y2772D01*
X2298Y2550D02*
X2342D01*
X2320Y2528D02*
Y2572D01*
X2298Y2650D02*
X2342D01*
X2320Y2628D02*
Y2672D01*
X723Y1797D02*
X767D01*
X745Y1775D02*
Y1818D01*
X723Y1993D02*
X767D01*
X745Y1972D02*
Y2015D01*
X610Y1130D02*
X650D01*
X630Y1110D02*
Y1150D01*
X710Y1130D02*
X750D01*
X730Y1110D02*
Y1150D01*
X810Y1130D02*
X850D01*
X830Y1110D02*
Y1150D01*
X717Y2285D02*
X768D01*
X742Y2259D02*
Y2311D01*
X717Y2423D02*
X768D01*
X742Y2397D02*
Y2448D01*
X2235Y1130D02*
X2275D01*
X2255Y1110D02*
Y1150D01*
X2334Y1130D02*
X2373D01*
X2353Y1110D02*
Y1150D01*
X2432Y1130D02*
X2472D01*
X2452Y1110D02*
Y1150D01*
X717Y2700D02*
X768D01*
X742Y2674D02*
Y2725D01*
X717Y2838D02*
X768D01*
X742Y2812D02*
Y2863D01*
X1881Y2500D02*
X1909D01*
X1895Y2486D02*
Y2514D01*
X1506Y1715D02*
X1534D01*
X1520Y1701D02*
Y1729D01*
X1861Y2800D02*
X1889D01*
X1875Y2786D02*
Y2814D01*
X1396Y1735D02*
X1424D01*
X1410Y1721D02*
Y1749D01*
X1503Y2223D02*
X1531D01*
X1517Y2209D02*
Y2237D01*
X1791Y2200D02*
X1819D01*
X1805Y2186D02*
Y2214D01*
X1196Y1855D02*
X1224D01*
X1210Y1841D02*
Y1869D01*
X1101Y1255D02*
X1129D01*
X1115Y1241D02*
Y1269D01*
X1616Y2335D02*
X1644D01*
X1630Y2321D02*
Y2349D01*
X1536Y2275D02*
X1564D01*
X1550Y2261D02*
Y2289D01*
X1746Y2140D02*
X1774D01*
X1760Y2126D02*
Y2154D01*
X1706Y2095D02*
X1734D01*
X1720Y2081D02*
Y2109D01*
X1251Y2085D02*
X1279D01*
X1265Y2071D02*
Y2099D01*
X1211Y2145D02*
X1239D01*
X1225Y2131D02*
Y2159D01*
X1211Y2285D02*
X1239D01*
X1225Y2271D02*
Y2299D01*
X1156Y2190D02*
X1184D01*
X1170Y2176D02*
Y2204D01*
X1156Y2320D02*
X1184D01*
X1170Y2306D02*
Y2334D01*
X1251Y2360D02*
X1279D01*
X1265Y2346D02*
Y2374D01*
X981Y830D02*
X1009D01*
X995Y816D02*
Y844D01*
X946Y945D02*
X974D01*
X960Y931D02*
Y959D01*
X2096Y665D02*
X2124D01*
X2110Y651D02*
Y679D01*
X811Y670D02*
X839D01*
X825Y656D02*
Y684D01*
X2091Y1955D02*
X2119D01*
X2105Y1941D02*
Y1969D01*
X2091Y1855D02*
X2119D01*
X2105Y1841D02*
Y1869D01*
M02*
