G04*
G04 #@! TF.GenerationSoftware,Altium Limited,Altium Designer,22.0.2 (36)*
G04*
G04 Layer_Color=2752767*
%FSLAX23Y23*%
%MOIN*%
G70*
G04*
G04 #@! TF.SameCoordinates,FFE58276-D16A-40DC-94CB-801E61EA4FAC*
G04*
G04*
G04 #@! TF.FilePolarity,Positive*
G04*
G01*
G75*
%ADD51C,0.002*%
%ADD52C,0.003*%
D51*
X2492Y1803D02*
Y1819D01*
X2508D01*
Y1803D01*
X2492D01*
Y1603D02*
Y1619D01*
X2508D01*
Y1603D01*
X2492D01*
Y1503D02*
Y1519D01*
X2508D01*
Y1503D01*
X2492D01*
Y1703D02*
Y1719D01*
X2508D01*
Y1703D01*
X2492D01*
Y1903D02*
Y1919D01*
X2508D01*
Y1903D01*
X2492D01*
Y2003D02*
Y2019D01*
X2508D01*
Y2003D01*
X2492D01*
X1025Y2697D02*
X1017Y2713D01*
X1033D01*
X1025Y2697D01*
Y2797D02*
X1017Y2813D01*
X1033D01*
X1025Y2797D01*
Y2897D02*
X1017Y2913D01*
X1033D01*
X1025Y2897D01*
Y2997D02*
X1017Y3013D01*
X1033D01*
X1025Y2997D01*
Y2597D02*
X1017Y2613D01*
X1033D01*
X1025Y2597D01*
Y2497D02*
X1017Y2513D01*
X1033D01*
X1025Y2497D01*
Y2397D02*
X1017Y2413D01*
X1033D01*
X1025Y2397D01*
Y2297D02*
X1017Y2313D01*
X1033D01*
X1025Y2297D01*
Y2197D02*
X1017Y2213D01*
X1033D01*
X1025Y2197D01*
Y2097D02*
X1017Y2113D01*
X1033D01*
X1025Y2097D01*
Y1697D02*
X1017Y1713D01*
X1033D01*
X1025Y1697D01*
Y1797D02*
X1017Y1813D01*
X1033D01*
X1025Y1797D01*
Y1897D02*
X1017Y1913D01*
X1033D01*
X1025Y1897D01*
Y1997D02*
X1017Y2013D01*
X1033D01*
X1025Y1997D01*
Y1597D02*
X1017Y1613D01*
X1033D01*
X1025Y1597D01*
Y1497D02*
X1017Y1513D01*
X1033D01*
X1025Y1497D01*
Y1397D02*
X1017Y1413D01*
X1033D01*
X1025Y1397D01*
Y1297D02*
X1017Y1313D01*
X1033D01*
X1025Y1297D01*
Y1197D02*
X1017Y1213D01*
X1033D01*
X1025Y1197D01*
X2025Y2697D02*
X2017Y2713D01*
X2033D01*
X2025Y2697D01*
Y2797D02*
X2017Y2813D01*
X2033D01*
X2025Y2797D01*
Y2897D02*
X2017Y2913D01*
X2033D01*
X2025Y2897D01*
Y2997D02*
X2017Y3013D01*
X2033D01*
X2025Y2997D01*
Y2597D02*
X2017Y2613D01*
X2033D01*
X2025Y2597D01*
Y2497D02*
X2017Y2513D01*
X2033D01*
X2025Y2497D01*
Y2397D02*
X2017Y2413D01*
X2033D01*
X2025Y2397D01*
Y2297D02*
X2017Y2313D01*
X2033D01*
X2025Y2297D01*
Y2197D02*
X2017Y2213D01*
X2033D01*
X2025Y2197D01*
Y2097D02*
X2017Y2113D01*
X2033D01*
X2025Y2097D01*
Y1697D02*
X2017Y1713D01*
X2033D01*
X2025Y1697D01*
Y1797D02*
X2017Y1813D01*
X2033D01*
X2025Y1797D01*
Y1897D02*
X2017Y1913D01*
X2033D01*
X2025Y1897D01*
Y1997D02*
X2017Y2013D01*
X2033D01*
X2025Y1997D01*
Y1597D02*
X2017Y1613D01*
X2033D01*
X2025Y1597D01*
Y1497D02*
X2017Y1513D01*
X2033D01*
X2025Y1497D01*
Y1397D02*
X2017Y1413D01*
X2033D01*
X2025Y1397D01*
Y1297D02*
X2017Y1313D01*
X2033D01*
X2025Y1297D01*
Y1197D02*
X2017Y1213D01*
X2033D01*
X2025Y1197D01*
X2308Y2193D02*
X2312Y2197D01*
X2316D01*
X2312Y2201D01*
X2316Y2205D01*
X2312D01*
X2308Y2209D01*
X2304Y2205D01*
X2300D01*
X2304Y2201D01*
X2300Y2197D01*
X2304D01*
X2308Y2193D01*
Y2331D02*
X2312Y2335D01*
X2316D01*
X2312Y2339D01*
X2316Y2343D01*
X2312D01*
X2308Y2347D01*
X2304Y2343D01*
X2300D01*
X2304Y2339D01*
X2300Y2335D01*
X2304D01*
X2308Y2331D01*
X2312Y2842D02*
Y2858D01*
X2328D01*
Y2842D01*
X2312D01*
Y2742D02*
Y2758D01*
X2328D01*
Y2742D01*
X2312D01*
Y2542D02*
Y2558D01*
X2328D01*
Y2542D01*
X2312D01*
Y2642D02*
Y2658D01*
X2328D01*
Y2642D01*
X2312D01*
X737Y1789D02*
Y1805D01*
X753D01*
Y1789D01*
X737D01*
Y1985D02*
Y2001D01*
X753D01*
Y1985D01*
X737D01*
X630Y1122D02*
X622Y1138D01*
X638D01*
X630Y1122D01*
X730D02*
X722Y1138D01*
X738D01*
X730Y1122D01*
X830D02*
X822Y1138D01*
X838D01*
X830Y1122D01*
X742Y2277D02*
X746Y2281D01*
X750D01*
X746Y2285D01*
X750Y2289D01*
X746D01*
X742Y2293D01*
X738Y2289D01*
X734D01*
X738Y2285D01*
X734Y2281D01*
X738D01*
X742Y2277D01*
Y2415D02*
X746Y2419D01*
X750D01*
X746Y2423D01*
X750Y2427D01*
X746D01*
X742Y2431D01*
X738Y2427D01*
X734D01*
X738Y2423D01*
X734Y2419D01*
X738D01*
X742Y2415D01*
X2247Y1122D02*
X2251Y1130D01*
X2247Y1138D01*
X2255Y1134D01*
X2263Y1138D01*
X2259Y1130D01*
X2263Y1122D01*
X2255Y1126D01*
X2247Y1122D01*
X2345D02*
X2349Y1130D01*
X2345Y1138D01*
X2353Y1134D01*
X2361Y1138D01*
X2357Y1130D01*
X2361Y1122D01*
X2353Y1126D01*
X2345Y1122D01*
X2444D02*
X2448Y1130D01*
X2444Y1138D01*
X2452Y1134D01*
X2460Y1138D01*
X2456Y1130D01*
X2460Y1122D01*
X2452Y1126D01*
X2444Y1122D01*
X742Y2692D02*
X746Y2696D01*
X750D01*
X746Y2700D01*
X750Y2704D01*
X746D01*
X742Y2708D01*
X738Y2704D01*
X734D01*
X738Y2700D01*
X734Y2696D01*
X738D01*
X742Y2692D01*
Y2830D02*
X746Y2834D01*
X750D01*
X746Y2838D01*
X750Y2842D01*
X746D01*
X742Y2846D01*
X738Y2842D01*
X734D01*
X738Y2838D01*
X734Y2834D01*
X738D01*
X742Y2830D01*
X1891Y2496D02*
Y2492D01*
X1899D01*
Y2496D01*
X1903D01*
Y2504D01*
X1899D01*
Y2508D01*
X1891D01*
Y2504D01*
X1887D01*
Y2496D01*
X1891D01*
X1516Y1711D02*
Y1707D01*
X1524D01*
Y1711D01*
X1528D01*
Y1719D01*
X1524D01*
Y1723D01*
X1516D01*
Y1719D01*
X1512D01*
Y1711D01*
X1516D01*
X1871Y2796D02*
Y2792D01*
X1879D01*
Y2796D01*
X1883D01*
Y2804D01*
X1879D01*
Y2808D01*
X1871D01*
Y2804D01*
X1867D01*
Y2796D01*
X1871D01*
X1406Y1731D02*
Y1727D01*
X1414D01*
Y1731D01*
X1418D01*
Y1739D01*
X1414D01*
Y1743D01*
X1406D01*
Y1739D01*
X1402D01*
Y1731D01*
X1406D01*
X1513Y2219D02*
Y2215D01*
X1521D01*
Y2219D01*
X1525D01*
Y2227D01*
X1521D01*
Y2231D01*
X1513D01*
Y2227D01*
X1509D01*
Y2219D01*
X1513D01*
X1801Y2196D02*
Y2192D01*
X1809D01*
Y2196D01*
X1813D01*
Y2204D01*
X1809D01*
Y2208D01*
X1801D01*
Y2204D01*
X1797D01*
Y2196D01*
X1801D01*
X1206Y1851D02*
Y1847D01*
X1214D01*
Y1851D01*
X1218D01*
Y1859D01*
X1214D01*
Y1863D01*
X1206D01*
Y1859D01*
X1202D01*
Y1851D01*
X1206D01*
X1111Y1251D02*
Y1247D01*
X1119D01*
Y1251D01*
X1123D01*
Y1259D01*
X1119D01*
Y1263D01*
X1111D01*
Y1259D01*
X1107D01*
Y1251D01*
X1111D01*
X1626Y2331D02*
Y2327D01*
X1634D01*
Y2331D01*
X1638D01*
Y2339D01*
X1634D01*
Y2343D01*
X1626D01*
Y2339D01*
X1622D01*
Y2331D01*
X1626D01*
X1546Y2271D02*
Y2267D01*
X1554D01*
Y2271D01*
X1558D01*
Y2279D01*
X1554D01*
Y2283D01*
X1546D01*
Y2279D01*
X1542D01*
Y2271D01*
X1546D01*
X1756Y2136D02*
Y2132D01*
X1764D01*
Y2136D01*
X1768D01*
Y2144D01*
X1764D01*
Y2148D01*
X1756D01*
Y2144D01*
X1752D01*
Y2136D01*
X1756D01*
X1716Y2091D02*
Y2087D01*
X1724D01*
Y2091D01*
X1728D01*
Y2099D01*
X1724D01*
Y2103D01*
X1716D01*
Y2099D01*
X1712D01*
Y2091D01*
X1716D01*
X1261Y2081D02*
Y2077D01*
X1269D01*
Y2081D01*
X1273D01*
Y2089D01*
X1269D01*
Y2093D01*
X1261D01*
Y2089D01*
X1257D01*
Y2081D01*
X1261D01*
X1221Y2141D02*
Y2137D01*
X1229D01*
Y2141D01*
X1233D01*
Y2149D01*
X1229D01*
Y2153D01*
X1221D01*
Y2149D01*
X1217D01*
Y2141D01*
X1221D01*
Y2281D02*
Y2277D01*
X1229D01*
Y2281D01*
X1233D01*
Y2289D01*
X1229D01*
Y2293D01*
X1221D01*
Y2289D01*
X1217D01*
Y2281D01*
X1221D01*
X1166Y2186D02*
Y2182D01*
X1174D01*
Y2186D01*
X1178D01*
Y2194D01*
X1174D01*
Y2198D01*
X1166D01*
Y2194D01*
X1162D01*
Y2186D01*
X1166D01*
Y2316D02*
Y2312D01*
X1174D01*
Y2316D01*
X1178D01*
Y2324D01*
X1174D01*
Y2328D01*
X1166D01*
Y2324D01*
X1162D01*
Y2316D01*
X1166D01*
X1261Y2356D02*
Y2352D01*
X1269D01*
Y2356D01*
X1273D01*
Y2364D01*
X1269D01*
Y2368D01*
X1261D01*
Y2364D01*
X1257D01*
Y2356D01*
X1261D01*
X991Y826D02*
Y822D01*
X999D01*
Y826D01*
X1003D01*
Y834D01*
X999D01*
Y838D01*
X991D01*
Y834D01*
X987D01*
Y826D01*
X991D01*
X956Y941D02*
Y937D01*
X964D01*
Y941D01*
X968D01*
Y949D01*
X964D01*
Y953D01*
X956D01*
Y949D01*
X952D01*
Y941D01*
X956D01*
X2106Y661D02*
Y657D01*
X2114D01*
Y661D01*
X2118D01*
Y669D01*
X2114D01*
Y673D01*
X2106D01*
Y669D01*
X2102D01*
Y661D01*
X2106D01*
X821Y666D02*
Y662D01*
X829D01*
Y666D01*
X833D01*
Y674D01*
X829D01*
Y678D01*
X821D01*
Y674D01*
X817D01*
Y666D01*
X821D01*
X2101Y1951D02*
Y1947D01*
X2109D01*
Y1951D01*
X2113D01*
Y1959D01*
X2109D01*
Y1963D01*
X2101D01*
Y1959D01*
X2097D01*
Y1951D01*
X2101D01*
Y1851D02*
Y1847D01*
X2109D01*
Y1851D01*
X2113D01*
Y1859D01*
X2109D01*
Y1863D01*
X2101D01*
Y1859D01*
X2097D01*
Y1851D01*
X2101D01*
D52*
X1518Y2850D02*
G03*
X1518Y2850I-8J0D01*
G01*
Y1295D02*
G03*
X1518Y1295I-8J0D01*
G01*
M02*
