G04*
G04 #@! TF.GenerationSoftware,Altium Limited,Altium Designer,22.0.2 (36)*
G04*
G04 Layer_Color=8388736*
%FSLAX23Y23*%
%MOIN*%
G70*
G04*
G04 #@! TF.SameCoordinates,FFE58276-D16A-40DC-94CB-801E61EA4FAC*
G04*
G04*
G04 #@! TF.FilePolarity,Negative*
G04*
G01*
G75*
%ADD23R,0.030X0.067*%
%ADD24R,0.053X0.077*%
G04:AMPARAMS|DCode=25|XSize=24mil|YSize=69mil|CornerRadius=5mil|HoleSize=0mil|Usage=FLASHONLY|Rotation=90.000|XOffset=0mil|YOffset=0mil|HoleType=Round|Shape=RoundedRectangle|*
%AMROUNDEDRECTD25*
21,1,0.024,0.059,0,0,90.0*
21,1,0.014,0.069,0,0,90.0*
1,1,0.010,0.030,0.007*
1,1,0.010,0.030,-0.007*
1,1,0.010,-0.030,-0.007*
1,1,0.010,-0.030,0.007*
%
%ADD25ROUNDEDRECTD25*%
%ADD26R,0.061X0.067*%
%ADD27R,0.067X0.065*%
%ADD28R,0.067X0.067*%
%ADD29C,0.069*%
%ADD30R,0.069X0.069*%
%ADD31C,0.163*%
%ADD32C,0.081*%
%ADD33C,0.083*%
%ADD34R,0.083X0.083*%
%ADD35C,0.067*%
%ADD36C,0.065*%
%ADD37R,0.065X0.065*%
D23*
X944Y823D02*
D03*
X904D02*
D03*
X865D02*
D03*
X826D02*
D03*
X2229Y818D02*
D03*
X2190D02*
D03*
X2151D02*
D03*
X2111D02*
D03*
D24*
X775Y670D02*
D03*
X995D02*
D03*
X2060Y665D02*
D03*
X2280D02*
D03*
D25*
X1390Y2300D02*
D03*
Y2274D02*
D03*
Y2248D02*
D03*
Y2223D02*
D03*
Y2197D02*
D03*
Y2172D02*
D03*
Y2146D02*
D03*
Y2120D02*
D03*
X1630Y2300D02*
D03*
Y2274D02*
D03*
Y2248D02*
D03*
Y2223D02*
D03*
Y2197D02*
D03*
Y2172D02*
D03*
Y2146D02*
D03*
Y2120D02*
D03*
D26*
X2318Y945D02*
D03*
X2392D02*
D03*
D27*
X1865Y2350D02*
D03*
Y2280D02*
D03*
D28*
Y2156D02*
D03*
Y2084D02*
D03*
X830Y1130D02*
D03*
D29*
X2500Y1811D02*
D03*
Y1611D02*
D03*
Y1711D02*
D03*
Y1911D02*
D03*
Y2011D02*
D03*
X2320Y2850D02*
D03*
Y2750D02*
D03*
Y2650D02*
D03*
X745Y1993D02*
D03*
D30*
X2500Y1511D02*
D03*
X2320Y2550D02*
D03*
X745Y1797D02*
D03*
D31*
X1510Y2850D02*
D03*
Y1295D02*
D03*
D32*
X1025Y2705D02*
D03*
Y2805D02*
D03*
Y2905D02*
D03*
Y3005D02*
D03*
Y2605D02*
D03*
Y2505D02*
D03*
Y2405D02*
D03*
Y2305D02*
D03*
Y2205D02*
D03*
Y2105D02*
D03*
Y1705D02*
D03*
Y1805D02*
D03*
Y1905D02*
D03*
Y2005D02*
D03*
Y1605D02*
D03*
Y1505D02*
D03*
Y1405D02*
D03*
Y1305D02*
D03*
Y1205D02*
D03*
X2025Y2705D02*
D03*
Y2805D02*
D03*
Y2905D02*
D03*
Y3005D02*
D03*
Y2605D02*
D03*
Y2505D02*
D03*
Y2405D02*
D03*
Y2305D02*
D03*
Y2205D02*
D03*
Y2105D02*
D03*
Y1705D02*
D03*
Y1805D02*
D03*
Y1905D02*
D03*
Y2005D02*
D03*
Y1605D02*
D03*
Y1505D02*
D03*
Y1405D02*
D03*
Y1305D02*
D03*
Y1205D02*
D03*
D33*
X2308Y2201D02*
D03*
X742Y2285D02*
D03*
Y2700D02*
D03*
D34*
X2308Y2339D02*
D03*
X742Y2423D02*
D03*
Y2838D02*
D03*
D35*
X630Y1130D02*
D03*
X730D02*
D03*
D36*
X2255D02*
D03*
X2353D02*
D03*
D37*
X2452D02*
D03*
M02*
